<?xml version="1.0" encoding="UTF-8" standalone="no"?>
<!DOCTYPE svg PUBLIC "-//W3C//DTD SVG 1.1//EN" "http://www.w3.org/Graphics/SVG/1.1/DTD/svg11.dtd">
<svg xmlns="http://www.w3.org/2000/svg" version="1.1" viewBox="0.00 0.00 103.00 90.00">
<g stroke-width="2.00" fill="none" stroke-linecap="butt">
<path stroke="#679120" vector-effect="non-scaling-stroke" d="
  M 50.18 29.61
  C 52.97 27.49 57.01 33.09 57.99 35.02
  C 59.00 36.99 64.43 42.90 67.08 39.21
  Q 67.41 38.75 67.35 38.19
  Q 66.93 34.41 64.05 31.69
  Q 60.09 27.95 56.27 24.21
  C 53.96 21.95 51.29 20.54 48.76 23.01
  Q 44.80 26.88 41.01 30.40
  Q 38.35 32.87 36.62 36.51
  Q 35.12 39.65 38.57 40.10
  L 39.30 40.19
  Q 42.48 40.60 43.99 37.76
  C 45.52 34.87 47.57 31.59 50.18 29.61"
/>
<path stroke="#679120" vector-effect="non-scaling-stroke" d="
  M 51.52 43.40
  A 1.11 1.11 0.0 0 0 53.33 43.31
  L 55.79 39.40
  A 1.11 1.11 0.0 0 0 55.81 38.25
  L 52.60 32.81
  A 1.11 1.11 0.0 0 0 50.74 32.74
  L 47.64 37.13
  A 1.11 1.11 0.0 0 0 47.67 38.45
  L 51.52 43.40"
/>
<path stroke="#9c9b9b" vector-effect="non-scaling-stroke" d="
  M 63.26 49.40
  Q 63.27 48.91 63.76 48.88
  L 67.86 48.59
  Q 68.51 48.55 68.53 47.89
  L 68.54 47.51
  A 0.37 0.37 0.0 0 0 68.22 47.14
  C 66.18 46.92 62.35 46.71 61.78 49.32
  A 1.71 1.71 0.0 0 0 63.35 51.40
  L 68.31 51.70
  A 0.45 0.45 0.0 0 0 68.78 51.19
  L 68.73 50.83
  Q 68.64 50.16 67.95 50.13
  L 63.47 49.93
  Q 63.25 49.92 63.25 49.70
  L 63.26 49.40"
/>
<path stroke="#9c9b9b" vector-effect="non-scaling-stroke" d="
  M 29.40 48.94
  L 33.80 48.39
  Q 34.53 48.30 34.54 49.04
  L 34.58 53.83
  Q 34.58 54.39 35.13 54.28
  L 35.45 54.21
  A 0.30 0.30 0.0 0 0 35.68 53.93
  L 35.73 48.40
  Q 35.74 47.56 34.90 47.53
  L 28.74 47.32
  Q 27.25 47.27 27.45 48.75
  Q 27.66 50.31 27.55 53.41
  A 0.80 0.80 0.0 0 0 28.26 54.24
  L 28.54 54.27
  Q 29.32 54.36 29.28 53.57
  L 29.19 52.09
  Q 29.16 51.57 29.67 51.53
  L 32.11 51.31
  Q 32.42 51.29 32.48 50.97
  Q 32.51 50.78 32.38 50.66
  Q 32.24 50.53 32.06 50.51
  Q 30.74 50.37 29.47 50.17
  Q 29.23 50.13 29.06 49.95
  Q 28.91 49.80 28.89 49.60
  Q 28.82 49.01 29.40 48.94"
/>
<path stroke="#9c9b9b" vector-effect="non-scaling-stroke" d="
  M 75.82 51.52
  Q 76.87 52.05 75.75 52.40
  Q 73.85 52.99 71.46 52.19
  Q 71.28 52.13 71.11 52.20
  Q 70.79 52.35 70.81 52.84
  A 0.60 0.59 16.3 0 0 71.07 53.31
  Q 73.92 55.14 76.95 53.56
  A 1.82 1.81 -51.6 0 0 76.56 50.19
  Q 74.70 49.72 72.51 49.93
  A 0.32 0.32 0.0 0 1 72.17 49.58
  L 72.22 49.23
  A 0.66 0.65 88.9 0 1 72.76 48.66
  Q 74.88 48.32 77.04 48.99
  Q 77.42 49.11 77.48 48.72
  L 77.54 48.36
  Q 77.66 47.65 76.96 47.48
  Q 74.23 46.81 71.59 47.60
  A 1.50 1.50 0.0 0 0 70.56 49.35
  Q 71.00 51.34 73.27 51.12
  Q 74.75 50.98 75.82 51.52"
/>
<path stroke="#9c9b9b" vector-effect="non-scaling-stroke" d="
  M 40.62 49.77
  L 40.69 53.74
  Q 40.70 54.28 41.25 54.27
  L 42.19 54.25
  Q 42.62 54.24 42.60 53.81
  L 42.46 49.79
  Q 42.44 49.23 42.94 49.00
  Q 43.47 48.75 43.69 48.22
  A 0.52 0.52 0.0 0 0 43.21 47.51
  L 38.82 47.49
  Q 38.13 47.48 38.38 48.12
  Q 38.79 49.17 39.92 49.12
  A 0.66 0.66 0.0 0 1 40.62 49.77"
/>
<path stroke="#9c9b9b" vector-effect="non-scaling-stroke" d="
  M 48.40 50.57
  L 50.51 53.26
  Q 52.15 55.35 51.96 52.70
  Q 51.84 50.99 51.58 49.38
  Q 51.47 48.68 50.95 48.23
  Q 50.20 47.57 50.36 48.55
  L 50.53 49.55
  Q 50.80 51.16 49.84 49.84
  L 48.39 47.86
  A 0.88 0.87 -17.6 0 0 47.68 47.50
  L 46.22 47.49
  Q 45.33 47.48 45.76 48.26
  Q 47.00 50.49 46.65 53.79
  A 0.39 0.39 0.0 0 0 47.01 54.22
  L 47.34 54.25
  Q 47.72 54.28 47.72 53.91
  L 47.77 50.78
  Q 47.78 49.78 48.40 50.57"
/>
<path stroke="#9c9b9b" vector-effect="non-scaling-stroke" d="
  M 55.81 48.77
  L 59.19 48.68
  A 0.41 0.41 0.0 0 0 59.57 48.42
  L 59.72 48.04
  Q 59.95 47.42 59.29 47.43
  L 54.77 47.50
  A 0.70 0.70 0.0 0 0 54.08 48.23
  L 54.23 53.20
  A 0.82 0.81 -86.7 0 0 54.92 53.99
  Q 57.50 54.40 59.84 53.96
  Q 60.08 53.92 60.10 53.67
  L 60.13 53.39
  A 0.57 0.57 0.0 0 0 59.56 52.78
  L 55.76 52.77
  A 0.48 0.48 0.0 0 1 55.28 52.26
  L 55.31 51.85
  Q 55.35 51.30 55.90 51.27
  L 58.69 51.12
  Q 59.22 51.09 59.28 50.57
  Q 59.32 50.28 59.15 50.20
  Q 58.84 50.06 58.51 50.08
  Q 57.25 50.16 56.05 50.26
  A 0.66 0.66 0.0 0 1 55.35 49.74
  L 55.28 49.43
  A 0.56 0.55 -6.6 0 1 55.81 48.77"
/>
<path stroke="#9c9b9b" vector-effect="non-scaling-stroke" d="
  M 68.25 52.11
  Q 65.81 53.47 62.17 52.30
  A 0.34 0.34 0.0 0 0 61.78 52.80
  L 62.21 53.49
  A 0.63 0.62 82.6 0 0 62.54 53.75
  Q 65.97 54.92 68.69 53.13
  Q 68.79 53.07 68.78 52.94
  L 68.75 52.38
  Q 68.72 51.84 68.25 52.11"
/>
<path stroke="#44682b" vector-effect="non-scaling-stroke" d="
  M 62.59 57.50
  Q 62.56 57.29 62.35 57.32
  Q 61.27 57.50 61.22 58.85
  A 0.58 0.57 59.3 0 0 62.31 59.13
  Q 62.71 58.30 62.59 57.50"
/>
<path stroke="#44682b" vector-effect="non-scaling-stroke" d="
  M 51.4368 59.4113
  A 0.99 0.67 67.0 0 0 51.6667 58.2382
  A 0.99 0.67 67.0 0 0 50.6632 57.5887
  A 0.99 0.67 67.0 0 0 50.4333 58.7618
  A 0.99 0.67 67.0 0 0 51.4368 59.4113"
/>
<path stroke="#44682b" vector-effect="non-scaling-stroke" d="
  M 67.52 58.06
  Q 67.60 57.27 66.90 57.65
  Q 66.39 57.93 66.10 58.50
  Q 65.86 59.00 66.17 59.42
  Q 66.36 59.67 66.67 59.73
  Q 67.32 59.86 67.39 59.21
  L 67.52 58.06"
/>
<path stroke="#44682b" vector-effect="non-scaling-stroke" d="
  M 47.33 58.97
  L 46.87 58.11
  A 0.54 0.54 0.0 0 0 45.86 58.30
  Q 45.73 59.59 46.79 59.74
  A 0.53 0.53 0.0 0 0 47.33 58.97"
/>
<path stroke="#44682b" vector-effect="non-scaling-stroke" d="
  M 42.61 58.30
  Q 42.33 57.79 41.82 58.05
  Q 41.18 58.38 41.02 59.06
  Q 40.86 59.78 41.56 59.97
  Q 41.99 60.09 42.37 59.92
  Q 42.76 59.75 42.80 59.30
  Q 42.86 58.75 42.61 58.30"
/>
</g>
<path fill="#3f3e3e" d="
  M 0.00 0.00
  L 103.00 0.00
  L 103.00 90.00
  L 0.00 90.00
  L 0.00 0.00
  Z
  M 50.18 29.61
  C 52.97 27.49 57.01 33.09 57.99 35.02
  C 59.00 36.99 64.43 42.90 67.08 39.21
  Q 67.41 38.75 67.35 38.19
  Q 66.93 34.41 64.05 31.69
  Q 60.09 27.95 56.27 24.21
  C 53.96 21.95 51.29 20.54 48.76 23.01
  Q 44.80 26.88 41.01 30.40
  Q 38.35 32.87 36.62 36.51
  Q 35.12 39.65 38.57 40.10
  L 39.30 40.19
  Q 42.48 40.60 43.99 37.76
  C 45.52 34.87 47.57 31.59 50.18 29.61
  Z
  M 51.52 43.40
  A 1.11 1.11 0.0 0 0 53.33 43.31
  L 55.79 39.40
  A 1.11 1.11 0.0 0 0 55.81 38.25
  L 52.60 32.81
  A 1.11 1.11 0.0 0 0 50.74 32.74
  L 47.64 37.13
  A 1.11 1.11 0.0 0 0 47.67 38.45
  L 51.52 43.40
  Z
  M 63.26 49.40
  Q 63.27 48.91 63.76 48.88
  L 67.86 48.59
  Q 68.51 48.55 68.53 47.89
  L 68.54 47.51
  A 0.37 0.37 0.0 0 0 68.22 47.14
  C 66.18 46.92 62.35 46.71 61.78 49.32
  A 1.71 1.71 0.0 0 0 63.35 51.40
  L 68.31 51.70
  A 0.45 0.45 0.0 0 0 68.78 51.19
  L 68.73 50.83
  Q 68.64 50.16 67.95 50.13
  L 63.47 49.93
  Q 63.25 49.92 63.25 49.70
  L 63.26 49.40
  Z
  M 29.40 48.94
  L 33.80 48.39
  Q 34.53 48.30 34.54 49.04
  L 34.58 53.83
  Q 34.58 54.39 35.13 54.28
  L 35.45 54.21
  A 0.30 0.30 0.0 0 0 35.68 53.93
  L 35.73 48.40
  Q 35.74 47.56 34.90 47.53
  L 28.74 47.32
  Q 27.25 47.27 27.45 48.75
  Q 27.66 50.31 27.55 53.41
  A 0.80 0.80 0.0 0 0 28.26 54.24
  L 28.54 54.27
  Q 29.32 54.36 29.28 53.57
  L 29.19 52.09
  Q 29.16 51.57 29.67 51.53
  L 32.11 51.31
  Q 32.42 51.29 32.48 50.97
  Q 32.51 50.78 32.38 50.66
  Q 32.24 50.53 32.06 50.51
  Q 30.74 50.37 29.47 50.17
  Q 29.23 50.13 29.06 49.95
  Q 28.91 49.80 28.89 49.60
  Q 28.82 49.01 29.40 48.94
  Z
  M 75.82 51.52
  Q 76.87 52.05 75.75 52.40
  Q 73.85 52.99 71.46 52.19
  Q 71.28 52.13 71.11 52.20
  Q 70.79 52.35 70.81 52.84
  A 0.60 0.59 16.3 0 0 71.07 53.31
  Q 73.92 55.14 76.95 53.56
  A 1.82 1.81 -51.6 0 0 76.56 50.19
  Q 74.70 49.72 72.51 49.93
  A 0.32 0.32 0.0 0 1 72.17 49.58
  L 72.22 49.23
  A 0.66 0.65 88.9 0 1 72.76 48.66
  Q 74.88 48.32 77.04 48.99
  Q 77.42 49.11 77.48 48.72
  L 77.54 48.36
  Q 77.66 47.65 76.96 47.48
  Q 74.23 46.81 71.59 47.60
  A 1.50 1.50 0.0 0 0 70.56 49.35
  Q 71.00 51.34 73.27 51.12
  Q 74.75 50.98 75.82 51.52
  Z
  M 40.62 49.77
  L 40.69 53.74
  Q 40.70 54.28 41.25 54.27
  L 42.19 54.25
  Q 42.62 54.24 42.60 53.81
  L 42.46 49.79
  Q 42.44 49.23 42.94 49.00
  Q 43.47 48.75 43.69 48.22
  A 0.52 0.52 0.0 0 0 43.21 47.51
  L 38.82 47.49
  Q 38.13 47.48 38.38 48.12
  Q 38.79 49.17 39.92 49.12
  A 0.66 0.66 0.0 0 1 40.62 49.77
  Z
  M 48.40 50.57
  L 50.51 53.26
  Q 52.15 55.35 51.96 52.70
  Q 51.84 50.99 51.58 49.38
  Q 51.47 48.68 50.95 48.23
  Q 50.20 47.57 50.36 48.55
  L 50.53 49.55
  Q 50.80 51.16 49.84 49.84
  L 48.39 47.86
  A 0.88 0.87 -17.6 0 0 47.68 47.50
  L 46.22 47.49
  Q 45.33 47.48 45.76 48.26
  Q 47.00 50.49 46.65 53.79
  A 0.39 0.39 0.0 0 0 47.01 54.22
  L 47.34 54.25
  Q 47.72 54.28 47.72 53.91
  L 47.77 50.78
  Q 47.78 49.78 48.40 50.57
  Z
  M 55.81 48.77
  L 59.19 48.68
  A 0.41 0.41 0.0 0 0 59.57 48.42
  L 59.72 48.04
  Q 59.95 47.42 59.29 47.43
  L 54.77 47.50
  A 0.70 0.70 0.0 0 0 54.08 48.23
  L 54.23 53.20
  A 0.82 0.81 -86.7 0 0 54.92 53.99
  Q 57.50 54.40 59.84 53.96
  Q 60.08 53.92 60.10 53.67
  L 60.13 53.39
  A 0.57 0.57 0.0 0 0 59.56 52.78
  L 55.76 52.77
  A 0.48 0.48 0.0 0 1 55.28 52.26
  L 55.31 51.85
  Q 55.35 51.30 55.90 51.27
  L 58.69 51.12
  Q 59.22 51.09 59.28 50.57
  Q 59.32 50.28 59.15 50.20
  Q 58.84 50.06 58.51 50.08
  Q 57.25 50.16 56.05 50.26
  A 0.66 0.66 0.0 0 1 55.35 49.74
  L 55.28 49.43
  A 0.56 0.55 -6.6 0 1 55.81 48.77
  Z
  M 68.25 52.11
  Q 65.81 53.47 62.17 52.30
  A 0.34 0.34 0.0 0 0 61.78 52.80
  L 62.21 53.49
  A 0.63 0.62 82.6 0 0 62.54 53.75
  Q 65.97 54.92 68.69 53.13
  Q 68.79 53.07 68.78 52.94
  L 68.75 52.38
  Q 68.72 51.84 68.25 52.11
  Z
  M 62.59 57.50
  Q 62.56 57.29 62.35 57.32
  Q 61.27 57.50 61.22 58.85
  A 0.58 0.57 59.3 0 0 62.31 59.13
  Q 62.71 58.30 62.59 57.50
  Z
  M 51.4368 59.4113
  A 0.99 0.67 67.0 0 0 51.6667 58.2382
  A 0.99 0.67 67.0 0 0 50.6632 57.5887
  A 0.99 0.67 67.0 0 0 50.4333 58.7618
  A 0.99 0.67 67.0 0 0 51.4368 59.4113
  Z
  M 67.52 58.06
  Q 67.60 57.27 66.90 57.65
  Q 66.39 57.93 66.10 58.50
  Q 65.86 59.00 66.17 59.42
  Q 66.36 59.67 66.67 59.73
  Q 67.32 59.86 67.39 59.21
  L 67.52 58.06
  Z
  M 47.33 58.97
  L 46.87 58.11
  A 0.54 0.54 0.0 0 0 45.86 58.30
  Q 45.73 59.59 46.79 59.74
  A 0.53 0.53 0.0 0 0 47.33 58.97
  Z
  M 42.61 58.30
  Q 42.33 57.79 41.82 58.05
  Q 41.18 58.38 41.02 59.06
  Q 40.86 59.78 41.56 59.97
  Q 41.99 60.09 42.37 59.92
  Q 42.76 59.75 42.80 59.30
  Q 42.86 58.75 42.61 58.30
  Z"
/>
<path fill="#8fe301" d="
  M 50.18 29.61
  C 47.57 31.59 45.52 34.87 43.99 37.76
  Q 42.48 40.60 39.30 40.19
  L 38.57 40.10
  Q 35.12 39.65 36.62 36.51
  Q 38.35 32.87 41.01 30.40
  Q 44.80 26.88 48.76 23.01
  C 51.29 20.54 53.96 21.95 56.27 24.21
  Q 60.09 27.95 64.05 31.69
  Q 66.93 34.41 67.35 38.19
  Q 67.41 38.75 67.08 39.21
  C 64.43 42.90 59.00 36.99 57.99 35.02
  C 57.01 33.09 52.97 27.49 50.18 29.61
  Z"
/>
<path fill="#8fe301" d="
  M 51.52 43.40
  L 47.67 38.45
  A 1.11 1.11 0.0 0 1 47.64 37.13
  L 50.74 32.74
  A 1.11 1.11 0.0 0 1 52.60 32.81
  L 55.81 38.25
  A 1.11 1.11 0.0 0 1 55.79 39.40
  L 53.33 43.31
  A 1.11 1.11 0.0 0 1 51.52 43.40
  Z"
/>
<path fill="#f9f7f8" d="
  M 63.26 49.40
  L 63.25 49.70
  Q 63.25 49.92 63.47 49.93
  L 67.95 50.13
  Q 68.64 50.16 68.73 50.83
  L 68.78 51.19
  A 0.45 0.45 0.0 0 1 68.31 51.70
  L 63.35 51.40
  A 1.71 1.71 0.0 0 1 61.78 49.32
  C 62.35 46.71 66.18 46.92 68.22 47.14
  A 0.37 0.37 0.0 0 1 68.54 47.51
  L 68.53 47.89
  Q 68.51 48.55 67.86 48.59
  L 63.76 48.88
  Q 63.27 48.91 63.26 49.40
  Z"
/>
<path fill="#f9f7f8" d="
  M 28.89 49.60
  Q 28.91 49.80 29.06 49.95
  Q 29.23 50.13 29.47 50.17
  Q 30.74 50.37 32.06 50.51
  Q 32.24 50.53 32.38 50.66
  Q 32.51 50.78 32.48 50.97
  Q 32.42 51.29 32.11 51.31
  L 29.67 51.53
  Q 29.16 51.57 29.19 52.09
  L 29.28 53.57
  Q 29.32 54.36 28.54 54.27
  L 28.26 54.24
  A 0.80 0.80 0.0 0 1 27.55 53.41
  Q 27.66 50.31 27.45 48.75
  Q 27.25 47.27 28.74 47.32
  L 34.90 47.53
  Q 35.74 47.56 35.73 48.40
  L 35.68 53.93
  A 0.30 0.30 0.0 0 1 35.45 54.21
  L 35.13 54.28
  Q 34.58 54.39 34.58 53.83
  L 34.54 49.04
  Q 34.53 48.30 33.80 48.39
  L 29.40 48.94
  Q 28.82 49.01 28.89 49.60
  Z"
/>
<path fill="#f9f7f8" d="
  M 75.82 51.52
  Q 74.75 50.98 73.27 51.12
  Q 71.00 51.34 70.56 49.35
  A 1.50 1.50 0.0 0 1 71.59 47.60
  Q 74.23 46.81 76.96 47.48
  Q 77.66 47.65 77.54 48.36
  L 77.48 48.72
  Q 77.42 49.11 77.04 48.99
  Q 74.88 48.32 72.76 48.66
  A 0.66 0.65 88.9 0 0 72.22 49.23
  L 72.17 49.58
  A 0.32 0.32 0.0 0 0 72.51 49.93
  Q 74.70 49.72 76.56 50.19
  A 1.82 1.81 -51.6 0 1 76.95 53.56
  Q 73.92 55.14 71.07 53.31
  A 0.60 0.59 16.3 0 1 70.81 52.84
  Q 70.79 52.35 71.11 52.20
  Q 71.28 52.13 71.46 52.19
  Q 73.85 52.99 75.75 52.40
  Q 76.87 52.05 75.82 51.52
  Z"
/>
<path fill="#f9f7f8" d="
  M 39.92 49.12
  Q 38.79 49.17 38.38 48.12
  Q 38.13 47.48 38.82 47.49
  L 43.21 47.51
  A 0.52 0.52 0.0 0 1 43.69 48.22
  Q 43.47 48.75 42.94 49.00
  Q 42.44 49.23 42.46 49.79
  L 42.60 53.81
  Q 42.62 54.24 42.19 54.25
  L 41.25 54.27
  Q 40.70 54.28 40.69 53.74
  L 40.62 49.77
  A 0.66 0.66 0.0 0 0 39.92 49.12
  Z"
/>
<path fill="#f9f7f8" d="
  M 47.77 50.78
  L 47.72 53.91
  Q 47.72 54.28 47.34 54.25
  L 47.01 54.22
  A 0.39 0.39 0.0 0 1 46.65 53.79
  Q 47.00 50.49 45.76 48.26
  Q 45.33 47.48 46.22 47.49
  L 47.68 47.50
  A 0.88 0.87 -17.6 0 1 48.39 47.86
  L 49.84 49.84
  Q 50.80 51.16 50.53 49.55
  L 50.36 48.55
  Q 50.20 47.57 50.95 48.23
  Q 51.47 48.68 51.58 49.38
  Q 51.84 50.99 51.96 52.70
  Q 52.15 55.35 50.51 53.26
  L 48.40 50.57
  Q 47.78 49.78 47.77 50.78
  Z"
/>
<path fill="#f9f7f8" d="
  M 55.81 48.77
  A 0.56 0.55 -6.6 0 0 55.28 49.43
  L 55.35 49.74
  A 0.66 0.66 0.0 0 0 56.05 50.26
  Q 57.25 50.16 58.51 50.08
  Q 58.84 50.06 59.15 50.20
  Q 59.32 50.28 59.28 50.57
  Q 59.22 51.09 58.69 51.12
  L 55.90 51.27
  Q 55.35 51.30 55.31 51.85
  L 55.28 52.26
  A 0.48 0.48 0.0 0 0 55.76 52.77
  L 59.56 52.78
  A 0.57 0.57 0.0 0 1 60.13 53.39
  L 60.10 53.67
  Q 60.08 53.92 59.84 53.96
  Q 57.50 54.40 54.92 53.99
  A 0.82 0.81 -86.7 0 1 54.23 53.20
  L 54.08 48.23
  A 0.70 0.70 0.0 0 1 54.77 47.50
  L 59.29 47.43
  Q 59.95 47.42 59.72 48.04
  L 59.57 48.42
  A 0.41 0.41 0.0 0 1 59.19 48.68
  L 55.81 48.77
  Z"
/>
<path fill="#f9f7f8" d="
  M 68.25 52.11
  Q 68.72 51.84 68.75 52.38
  L 68.78 52.94
  Q 68.79 53.07 68.69 53.13
  Q 65.97 54.92 62.54 53.75
  A 0.63 0.62 82.6 0 1 62.21 53.49
  L 61.78 52.80
  A 0.34 0.34 0.0 0 1 62.17 52.30
  Q 65.81 53.47 68.25 52.11
  Z"
/>
<path fill="#499217" d="
  M 62.59 57.50
  Q 62.71 58.30 62.31 59.13
  A 0.58 0.57 59.3 0 1 61.22 58.85
  Q 61.27 57.50 62.35 57.32
  Q 62.56 57.29 62.59 57.50
  Z"
/>
<ellipse fill="#499217" cx="0.00" cy="0.00" transform="translate(51.05,58.50) rotate(67.0)" rx="0.99" ry="0.67"/>
<path fill="#499217" d="
  M 67.52 58.06
  L 67.39 59.21
  Q 67.32 59.86 66.67 59.73
  Q 66.36 59.67 66.17 59.42
  Q 65.86 59.00 66.10 58.50
  Q 66.39 57.93 66.90 57.65
  Q 67.60 57.27 67.52 58.06
  Z"
/>
<path fill="#499217" d="
  M 47.33 58.97
  A 0.53 0.53 0.0 0 1 46.79 59.74
  Q 45.73 59.59 45.86 58.30
  A 0.54 0.54 0.0 0 1 46.87 58.11
  L 47.33 58.97
  Z"
/>
<path fill="#499217" d="
  M 42.61 58.30
  Q 42.86 58.75 42.80 59.30
  Q 42.76 59.75 42.37 59.92
  Q 41.99 60.09 41.56 59.97
  Q 40.86 59.78 41.02 59.06
  Q 41.18 58.38 41.82 58.05
  Q 42.33 57.79 42.61 58.30
  Z"
/>
</svg>
